<svg width="72" height="72" fill="none" xmlns="http://www.w3.org/2000/svg"><circle cx="44" cy="44" r="28" fill="#2C6269"/><path fill-rule="evenodd" clip-rule="evenodd" d="M44.333 4.667A4.671 4.671 0 0149 0a4.671 4.671 0 014.667 4.667A4.671 4.671 0 0149 9.333a4.64 4.64 0 01-2.37-.647l-7.61 7.611a4.64 4.64 0 01.647 2.37A4.671 4.671 0 0135 23.333a4.671 4.671 0 01-4.603-5.44l-5.372-1.532A4.669 4.669 0 0121 18.667a4.643 4.643 0 01-2.802-.937l-7.117 5.675a4.64 4.64 0 01.586 2.262A4.671 4.671 0 017 30.333a4.671 4.671 0 01-4.667-4.666A4.671 4.671 0 017 21c.905 0 1.75.259 2.466.706l7.274-5.8A4.671 4.671 0 0121 9.333a4.671 4.671 0 014.665 4.784l5.7 1.625a4.66 4.66 0 016.005-1.095l7.61-7.61a4.639 4.639 0 01-.647-2.37zM19.223 15.51a1.188 1.188 0 00-.09-.111A2.322 2.322 0 0118.667 14 2.336 2.336 0 0121 11.667 2.336 2.336 0 0123.333 14 2.336 2.336 0 0121 16.333c-.712 0-1.35-.32-1.777-.823zm-10.61 8.472A2.325 2.325 0 007 23.333a2.336 2.336 0 00-2.333 2.334A2.336 2.336 0 007 28a2.336 2.336 0 002.333-2.333 2.326 2.326 0 00-.72-1.685zm38.785-17.62a1.22 1.22 0 00-.093-.093 2.326 2.326 0 01-.638-1.602A2.336 2.336 0 0149 2.333a2.336 2.336 0 012.333 2.334A2.336 2.336 0 0149 7c-.62 0-1.184-.243-1.602-.639zM52.5 18.666c.644 0 1.167.522 1.167 1.166v33.834h1.166a1.167 1.167 0 010 2.333H1.167a1.167 1.167 0 010-2.333h1.166V40.833c0-.644.523-1.166 1.167-1.166h7c.644 0 1.167.522 1.167 1.166v12.834h4.666v-24.5c0-.644.523-1.167 1.167-1.167h7c.644 0 1.167.523 1.167 1.167v24.5h4.666V33.833c0-.644.523-1.166 1.167-1.166h7c.644 0 1.167.522 1.167 1.166v19.834h4.666V19.833c0-.644.523-1.166 1.167-1.166h7zM51.333 21v32.667h-4.666V21h4.666zm-14 32.667V35h-4.666v18.667h4.666zM18.667 30.333h4.666v23.334h-4.666V30.333zM9.333 53.667V42H4.667v11.667h4.666zM35 21a2.336 2.336 0 01-2.333-2.333A2.336 2.336 0 0135 16.333a2.336 2.336 0 012.333 2.334A2.336 2.336 0 0135 21z" fill="#79C8C7"/></svg>